<svg width="916" height="652" viewBox="0 0 916 652" fill="none" xmlns="http://www.w3.org/2000/svg">
<g filter="url(#filter0_dd_262_1527)">
<path d="M912.492 469.053L907.436 466.266L907.55 472.038L912.492 469.053ZM-212.278 491.392L-207.222 494.179L-207.337 488.407L-212.278 491.392ZM907.983 468.642L-207.789 490.803L-207.769 491.803L908.003 469.642L907.983 468.642Z" fill="#363437"/>
</g>
<path d="M560.662 347.717L686.857 345.22L686.893 356.771C686.896 357.593 686.245 358.268 685.423 358.295L562.274 362.362C561.418 362.39 560.707 361.705 560.704 360.848L560.662 347.717Z" fill="#2E2C2F"/>
<path d="M686.384 344.278C687.329 344.933 686.882 346.415 685.733 346.438L561.835 348.909C560.803 348.93 560.239 347.711 560.924 346.938L609.383 292.212C609.781 291.762 610.452 291.681 610.946 292.023L686.384 344.278Z" fill="#333134"/>
<path d="M43.9583 261.886L316.66 256.488L316.643 270.936C316.641 272.717 315.219 274.172 313.439 274.216L47.29 280.758C45.4419 280.803 43.9202 279.315 43.9242 277.466L43.9583 261.886Z" fill="#2E2C2F"/>
<path d="M315.638 254.453C317.681 255.868 316.715 259.071 314.231 259.12L46.4841 264.462C44.252 264.506 43.0349 261.873 44.5149 260.202L149.237 141.936C150.097 140.965 151.547 140.789 152.614 141.528L315.638 254.453Z" fill="#333134"/>
<path d="M389.143 62.105L466.005 60.5836L466 64.6558C466 65.1579 465.599 65.568 465.097 65.5803L390.082 67.4242C389.561 67.437 389.132 67.0176 389.133 66.4965L389.143 62.105Z" fill="#2E2C2F"/>
<path d="M465.717 60.01C466.293 60.4088 466.021 61.3115 465.321 61.3255L389.855 62.831C389.226 62.8435 388.883 62.1014 389.3 61.6303L418.816 28.2964C419.059 28.0227 419.467 27.9733 419.768 28.1815L465.717 60.01Z" fill="#333134"/>
<path d="M67.0381 441.271L731.114 428.083L730.965 448.24C730.933 452.574 727.455 456.094 723.122 456.179L74.9692 468.891C70.4542 468.98 66.7608 465.316 66.8129 460.8L67.0381 441.271Z" fill="#2E2C2F"/>
<path d="M728.627 423.127C733.602 426.573 731.25 434.372 725.199 434.493L73.1605 447.501C67.7249 447.609 64.7609 441.197 68.3651 437.127L323.392 149.116C325.487 146.751 329.019 146.325 331.616 148.124L728.627 423.127Z" fill="#333134"/>
<path d="M473.693 348.967C475.687 350.347 474.744 353.473 472.32 353.521L266.073 357.636C263.895 357.679 262.707 355.11 264.151 353.479L344.819 262.378C345.659 261.43 347.074 261.259 348.114 261.98L473.693 348.967Z" fill="#302E31"/>
<path d="M204.868 588.368L405.367 584.399L405.425 602.752C405.429 604.058 404.395 605.131 403.089 605.174L207.429 611.636C206.068 611.681 204.939 610.592 204.934 609.229L204.868 588.368Z" fill="#2E2C2F"/>
<path d="M404.616 582.903C406.118 583.944 405.408 586.298 403.581 586.335L206.732 590.262C205.091 590.294 204.196 588.359 205.284 587.13L282.276 500.18C282.909 499.466 283.975 499.337 284.759 499.88L404.616 582.903Z" fill="#333134"/>
<mask id="mask0_262_1527" style="mask-type:alpha" maskUnits="userSpaceOnUse" x="263" y="261" width="212" height="97">
<path d="M473.693 348.967C475.687 350.347 474.744 353.473 472.32 353.521L266.073 357.636C263.895 357.679 262.707 355.11 264.151 353.479L344.819 262.378C345.659 261.43 347.074 261.259 348.114 261.98L473.693 348.967Z" fill="#302E31"/>
</mask>
<g mask="url(#mask0_262_1527)">
<path d="M350.367 296.037L346.337 259.543L249.873 351.091L281.301 368.214L350.367 296.037Z" fill="#2E2C2F"/>
<path d="M350.368 296.037L345.623 259.538L493.72 347.11L474.886 381.297L350.368 296.037Z" fill="#373538"/>
</g>
<g filter="url(#filter1_dd_262_1527)">
<path d="M244.869 3.25638L239.418 5.15728L243.79 8.92805L244.869 3.25638ZM-212.278 533.296L-206.826 531.395L-211.198 527.624L-212.278 533.296ZM241.552 6.33748L-209.718 529.562L-208.96 530.215L242.309 6.99059L241.552 6.33748Z" fill="#302E31"/>
</g>
<g filter="url(#filter2_dd_262_1527)">
<path d="M216.719 8.42545L219.374 13.552L222.486 8.68903L216.719 8.42545ZM896.351 443.348L893.695 438.221L890.583 443.084L896.351 443.348ZM220.24 11.2722L892.291 441.343L892.83 440.501L220.779 10.4299L220.24 11.2722Z" fill="#363437"/>
</g>
<defs>
<filter id="filter0_dd_262_1527" x="-215.278" y="463.266" width="1127.77" height="30.9134" filterUnits="userSpaceOnUse" color-interpolation-filters="sRGB">
<feFlood flood-opacity="0" result="BackgroundImageFix"/>
<feColorMatrix in="SourceAlpha" type="matrix" values="0 0 0 0 0 0 0 0 0 0 0 0 0 0 0 0 0 0 127 0" result="hardAlpha"/>
<feOffset dx="-2" dy="-2"/>
<feGaussianBlur stdDeviation="0.5"/>
<feComposite in2="hardAlpha" operator="out"/>
<feColorMatrix type="matrix" values="0 0 0 0 0.145098 0 0 0 0 0.141176 0 0 0 0 0.14902 0 0 0 1 0"/>
<feBlend mode="normal" in2="BackgroundImageFix" result="effect1_dropShadow_262_1527"/>
<feColorMatrix in="SourceAlpha" type="matrix" values="0 0 0 0 0 0 0 0 0 0 0 0 0 0 0 0 0 0 127 0" result="hardAlpha"/>
<feOffset dx="-1" dy="-1"/>
<feGaussianBlur stdDeviation="0.5"/>
<feComposite in2="hardAlpha" operator="out"/>
<feColorMatrix type="matrix" values="0 0 0 0 0.254902 0 0 0 0 0.25098 0 0 0 0 0.254902 0 0 0 1 0"/>
<feBlend mode="normal" in2="effect1_dropShadow_262_1527" result="effect2_dropShadow_262_1527"/>
<feBlend mode="normal" in="SourceGraphic" in2="effect2_dropShadow_262_1527" result="shape"/>
</filter>
<filter id="filter1_dd_262_1527" x="-215.278" y="0.256378" width="460.147" height="533.04" filterUnits="userSpaceOnUse" color-interpolation-filters="sRGB">
<feFlood flood-opacity="0" result="BackgroundImageFix"/>
<feColorMatrix in="SourceAlpha" type="matrix" values="0 0 0 0 0 0 0 0 0 0 0 0 0 0 0 0 0 0 127 0" result="hardAlpha"/>
<feOffset dx="-2" dy="-2"/>
<feGaussianBlur stdDeviation="0.5"/>
<feComposite in2="hardAlpha" operator="out"/>
<feColorMatrix type="matrix" values="0 0 0 0 0.145098 0 0 0 0 0.141176 0 0 0 0 0.14902 0 0 0 1 0"/>
<feBlend mode="normal" in2="BackgroundImageFix" result="effect1_dropShadow_262_1527"/>
<feColorMatrix in="SourceAlpha" type="matrix" values="0 0 0 0 0 0 0 0 0 0 0 0 0 0 0 0 0 0 127 0" result="hardAlpha"/>
<feOffset dx="-1" dy="-1"/>
<feGaussianBlur stdDeviation="0.5"/>
<feComposite in2="hardAlpha" operator="out"/>
<feColorMatrix type="matrix" values="0 0 0 0 0.254902 0 0 0 0 0.25098 0 0 0 0 0.254902 0 0 0 1 0"/>
<feBlend mode="normal" in2="effect1_dropShadow_262_1527" result="effect2_dropShadow_262_1527"/>
<feBlend mode="normal" in="SourceGraphic" in2="effect2_dropShadow_262_1527" result="shape"/>
</filter>
<filter id="filter2_dd_262_1527" x="213.719" y="5.42545" width="682.632" height="437.922" filterUnits="userSpaceOnUse" color-interpolation-filters="sRGB">
<feFlood flood-opacity="0" result="BackgroundImageFix"/>
<feColorMatrix in="SourceAlpha" type="matrix" values="0 0 0 0 0 0 0 0 0 0 0 0 0 0 0 0 0 0 127 0" result="hardAlpha"/>
<feOffset dx="-2" dy="-2"/>
<feGaussianBlur stdDeviation="0.5"/>
<feComposite in2="hardAlpha" operator="out"/>
<feColorMatrix type="matrix" values="0 0 0 0 0.145098 0 0 0 0 0.141176 0 0 0 0 0.14902 0 0 0 1 0"/>
<feBlend mode="normal" in2="BackgroundImageFix" result="effect1_dropShadow_262_1527"/>
<feColorMatrix in="SourceAlpha" type="matrix" values="0 0 0 0 0 0 0 0 0 0 0 0 0 0 0 0 0 0 127 0" result="hardAlpha"/>
<feOffset dx="-1" dy="-1"/>
<feGaussianBlur stdDeviation="0.5"/>
<feComposite in2="hardAlpha" operator="out"/>
<feColorMatrix type="matrix" values="0 0 0 0 0.254902 0 0 0 0 0.25098 0 0 0 0 0.254902 0 0 0 1 0"/>
<feBlend mode="normal" in2="effect1_dropShadow_262_1527" result="effect2_dropShadow_262_1527"/>
<feBlend mode="normal" in="SourceGraphic" in2="effect2_dropShadow_262_1527" result="shape"/>
</filter>
</defs>
</svg>
