<svg width="11" height="17" viewBox="0 0 11 17" fill="none" xmlns="http://www.w3.org/2000/svg">
<path d="M10.1836 1.07779C10.1836 0.959952 10.1357 0.846943 10.0505 0.763621C9.96522 0.680299 9.8496 0.633489 9.72905 0.633489H7.45632C6.31189 0.577766 5.19141 0.967061 4.3397 1.71632C3.488 2.46557 2.97431 3.51387 2.91087 4.63218V7.03139H0.638139C0.517586 7.03139 0.401971 7.0782 0.316727 7.16152C0.231483 7.24484 0.183594 7.35785 0.183594 7.47569V9.78604C0.183594 9.90387 0.231483 10.0169 0.316727 10.1002C0.401971 10.1835 0.517586 10.2303 0.638139 10.2303H2.91087V16.1839C2.91087 16.3018 2.95876 16.4148 3.044 16.4981C3.12924 16.5814 3.24486 16.6282 3.36541 16.6282H6.09268C6.21324 16.6282 6.32885 16.5814 6.4141 16.4981C6.49934 16.4148 6.54723 16.3018 6.54723 16.1839V10.2303H8.92905C9.03013 10.2318 9.12881 10.2002 9.20949 10.1407C9.29016 10.0811 9.34823 9.99697 9.3745 9.90156L10.029 7.5912C10.0471 7.52556 10.0496 7.45673 10.0362 7.39002C10.0227 7.32331 9.99385 7.26049 9.9517 7.20642C9.90954 7.15234 9.85526 7.10844 9.79302 7.07809C9.73077 7.04775 9.66224 7.03177 9.59269 7.03139H6.54723V4.63218C6.56984 4.41223 6.67552 4.20841 6.84362 4.06053C7.01171 3.91266 7.23017 3.83133 7.45632 3.83244H9.72905C9.8496 3.83244 9.96522 3.78563 10.0505 3.70231C10.1357 3.61898 10.1836 3.50597 10.1836 3.38814V1.07779Z" fill="#E2E2E2"/>
</svg>
