<svg width="14" height="15" viewBox="0 0 14 15" fill="none" xmlns="http://www.w3.org/2000/svg">
<path d="M9.23219 7.50006C9.23219 7.94309 9.10081 8.37617 8.85468 8.74454C8.60855 9.1129 8.2587 9.40001 7.8494 9.56955C7.44009 9.73909 6.9897 9.78345 6.55519 9.69702C6.12067 9.61059 5.72154 9.39725 5.40827 9.08398C5.095 8.77071 4.88166 8.37158 4.79523 7.93706C4.7088 7.50255 4.75316 7.05216 4.9227 6.64285C5.09224 6.23354 5.37934 5.8837 5.74771 5.63757C6.11608 5.39144 6.54916 5.26006 6.99219 5.26006C7.58606 5.26074 8.15542 5.49696 8.57536 5.91689C8.99529 6.33683 9.23151 6.90618 9.23219 7.50006ZM13.9922 4.42006V10.5801C13.991 11.6193 13.5776 12.6157 12.8427 13.3506C12.1079 14.0855 11.1115 14.4989 10.0722 14.5001H3.91219C2.8729 14.4989 1.87652 14.0855 1.14163 13.3506C0.406741 12.6157 -0.00663547 11.6193 -0.0078125 10.5801V4.42006C-0.00663547 3.38077 0.406741 2.38439 1.14163 1.6495C1.87652 0.914615 2.8729 0.501238 3.91219 0.500061H10.0722C11.1115 0.501238 12.1079 0.914615 12.8427 1.6495C13.5776 2.38439 13.991 3.38077 13.9922 4.42006ZM10.3522 7.50006C10.3522 6.83552 10.1551 6.18589 9.78592 5.63335C9.41672 5.0808 8.89196 4.65014 8.278 4.39583C7.66404 4.14152 6.98846 4.07498 6.33668 4.20462C5.68491 4.33427 5.08621 4.65428 4.61631 5.12418C4.1464 5.59409 3.8264 6.19278 3.69675 6.84456C3.5671 7.49633 3.63364 8.17192 3.88795 8.78588C4.14226 9.39984 4.57292 9.9246 5.12547 10.2938C5.67802 10.663 6.32764 10.8601 6.99219 10.8601C7.88301 10.8591 8.73705 10.5047 9.36695 9.87483C9.99686 9.24492 10.3512 8.39088 10.3522 7.50006ZM11.4722 3.86006C11.4722 3.69392 11.4229 3.53152 11.3306 3.39338C11.2383 3.25524 11.1071 3.14758 10.9536 3.084C10.8002 3.02042 10.6313 3.00379 10.4683 3.0362C10.3054 3.06861 10.1557 3.14862 10.0382 3.26609C9.92074 3.38357 9.84074 3.53324 9.80833 3.69618C9.77592 3.85913 9.79255 4.02803 9.85613 4.18152C9.91971 4.33501 10.0274 4.4662 10.1655 4.5585C10.3036 4.6508 10.4661 4.70006 10.6322 4.70006C10.855 4.70006 11.0686 4.61156 11.2262 4.45403C11.3837 4.2965 11.4722 4.08284 11.4722 3.86006Z" fill="#E2E2E2"/>
</svg>
