<svg width="18" height="18" viewBox="0 0 18 18" fill="none" xmlns="http://www.w3.org/2000/svg">
<path d="M8.05511 4.8267L5.34878 1.704C5.03655 1.34373 4.46485 1.34606 4.1023 1.70909L1.87674 3.9376C1.21438 4.60084 1.02479 5.58586 1.40753 6.37544C3.71279 11.1312 7.50739 14.9309 12.2569 17.2392C13.0454 17.6224 14.0292 17.4326 14.6915 16.7694L16.9382 14.5196C17.3022 14.1552 17.3029 13.5801 16.9398 13.2684L13.8033 10.5764C13.4751 10.2947 12.9658 10.3316 12.6369 10.6611L11.5458 11.7535C11.4245 11.8751 11.2421 11.9041 11.1034 11.8241C9.31679 10.794 7.84415 9.31946 6.81541 7.53053C6.73552 7.39161 6.76457 7.20895 6.88589 7.08748L7.97359 5.99832C8.30399 5.66749 8.33967 5.15502 8.05511 4.8267V4.8267Z" stroke="#4A484B" stroke-linecap="round" stroke-linejoin="round"/>
</svg>
