<svg width="18" height="15" viewBox="0 0 18 15" fill="none" xmlns="http://www.w3.org/2000/svg">
<path d="M17.5053 2.29345C16.8767 2.56466 16.2039 2.75125 15.4947 2.83587C16.2183 2.40856 16.7715 1.73263 17.0353 0.927413C16.3566 1.31636 15.6058 1.59808 14.8074 1.75734C14.1708 1.08667 13.2609 0.664612 12.251 0.664612C10.3152 0.664612 8.74628 2.2083 8.74628 4.11098C8.74628 4.38482 8.77992 4.64762 8.83813 4.89676C5.92612 4.76273 3.34467 3.38565 1.61819 1.30532C1.31486 1.812 1.14238 2.40067 1.14238 3.04138C1.14238 4.24028 1.76237 5.29148 2.69958 5.90959C2.12657 5.8933 1.58721 5.73719 1.11461 5.48017V5.5217C1.11461 7.19363 2.32149 8.58753 3.92355 8.90499C3.63144 8.98121 3.31957 9.02536 3.0029 9.02536C2.77808 9.02536 2.5634 9.00381 2.34926 8.96491C2.79997 10.3336 4.09016 11.3301 5.62814 11.3601C4.43247 12.2825 2.91692 12.8323 1.28389 12.8323C1.00567 12.8323 0.727977 12.8191 0.449219 12.786C2.00695 13.7637 3.84558 14.3355 5.8316 14.3355C12.2756 14.3355 15.7969 9.08212 15.7969 4.53251C15.7969 4.38745 15.7969 4.23975 15.7857 4.09153C16.473 3.60956 17.0679 2.99881 17.5378 2.30659L17.5053 2.29345Z" fill="#E2E2E2"/>
</svg>
