<svg width="160" height="68" viewBox="0 0 160 68" fill="none" xmlns="http://www.w3.org/2000/svg">
<path d="M30.8018 67.6903V62.1963H35.64C36.0901 62.1963 36.4136 62.2785 36.6105 62.4566C36.8074 62.621 36.9058 62.895 36.9058 63.265V63.9363C36.9058 64.1966 36.8214 64.4158 36.6527 64.5665C36.4839 64.7172 36.2448 64.8268 35.9354 64.8542C36.2589 64.8953 36.512 65.005 36.6808 65.1968C36.8636 65.3749 36.948 65.6215 36.948 65.9092V66.6079C36.948 66.9779 36.8074 67.2382 36.5402 67.4163C36.2729 67.5944 35.851 67.6766 35.2884 67.6766H30.8018V67.6903ZM35.0915 63.0868H32.0957V64.4021H35.0915C35.3165 64.4021 35.4712 64.3747 35.5697 64.3199C35.6541 64.2651 35.6963 64.1555 35.6963 64.0185V63.4979C35.6963 63.3609 35.6541 63.2513 35.5697 63.1964C35.4853 63.1416 35.3306 63.1005 35.0915 63.1005V63.0868ZM35.0915 65.3064H32.0957V66.7038H35.0915C35.3447 66.7038 35.5134 66.6627 35.5978 66.5942C35.6822 66.5257 35.7244 66.3887 35.7244 66.2106V65.7996C35.7244 65.6215 35.6822 65.4845 35.5978 65.416C35.5134 65.3475 35.3447 65.3064 35.0915 65.3064Z" fill="#E5AE00"/>
<path d="M49.3389 67.6905L52.5315 62.1965H53.7974L57.0323 67.6905H55.5555L54.8804 66.4849H51.3079L50.6469 67.6905H49.3389ZM51.8705 65.4984H54.3459L53.1223 63.2652L51.8705 65.4984Z" fill="#E5AE00"/>
<path d="M69.7749 67.6905V62.1965H71.0829V67.6905H69.7749Z" fill="#E5AE00"/>
<path d="M86.4841 67.6901V65.2239L83.5586 62.1824H85.3026L87.2435 64.2923L89.1845 62.1824H90.7316L87.8061 65.1828V67.6764H86.4841V67.6901Z" fill="#E5AE00"/>
<path d="M104.501 62.1965V66.663H108.242V62.1965H109.55V66.389C109.55 66.8959 109.452 67.2384 109.269 67.4165C109.072 67.5946 108.706 67.6905 108.158 67.6905H104.585C104.037 67.6905 103.671 67.5946 103.474 67.4165C103.277 67.2384 103.179 66.8959 103.179 66.389V62.1965H104.487H104.501Z" fill="#E5AE00"/>
<path d="M123.361 67.6905V62.1965H129.142V63.1282H124.683V64.3613H127.285V65.2929H124.683V66.6493H129.198V67.6905H123.375H123.361Z" fill="#E5AE00"/>
<path d="M27.8903 64.4565H0V65.5252H27.8903V64.4565Z" fill="#E5AE00"/>
<path d="M160 64.4565H132.109V65.5252H160V64.4565Z" fill="#E5AE00"/>
<path d="M82.532 0.30957H64.3042V60.6889H67.0327V2.96752H79.7894V29.1634H73.4181V31.8213H87.5391V60.6889H90.2817V29.1634H82.532V0.30957Z" fill="#E5AE00"/>
<path d="M95.2882 7.85864H87.5386V10.8454H95.2882V7.85864Z" fill="#E5AE00"/>
<path d="M105.766 14.0649H87.5386V22.943H90.2812V16.7366H103.038V60.6887H105.766V24.2857V21.6141V14.0649Z" fill="#E5AE00"/>
<path d="M14.6695 60.6888V46.3989L0 60.6888H15.4993H14.6835H14.6695ZM13.4318 59.4832H2.99578L13.4318 49.3172V59.4832Z" fill="#E5AE00"/>
<path d="M30.1268 60.6888V47.5635L16.6528 60.6888H30.1268ZM28.8891 59.4831H19.6486L28.8891 50.4817V59.4831Z" fill="#E5AE00"/>
<path d="M16.3149 46.3855V58.7573L29.0154 46.3855H16.3149Z" fill="#E5AE00"/>
<path d="M30.1265 44.796V31.3418L16.3149 44.796H30.1265ZM28.8888 43.5903H19.2967L28.8888 34.2464V43.5903Z" fill="#E5AE00"/>
<path d="M45.6682 16.2024L31.8145 29.6976H45.6682V16.2024ZM44.4305 28.492H34.8102L44.4305 19.1207V28.492Z" fill="#E5AE00"/>
<path d="M47.2999 31.3007H31.7725V60.6889H61.9834V50.1256H60.4363V45.5906H61.9834V42.5764H60.4363V38.0552H61.9834V35.041H60.4363V30.5198H61.9834V27.5056H60.4363V22.9843H61.9834V19.9702H60.4363V15.4489H61.9834V0.30957L47.3139 14.5995V31.287L47.2999 31.3007ZM52.6726 15.4078H54.2197V19.9291H52.6726V15.4078ZM52.6726 22.9569H54.2197V27.4782H52.6726V22.9569ZM52.6726 30.5061H54.2197V35.0273H52.6726V30.5061ZM52.6726 38.0552H54.2197V42.5764H52.6726V38.0552ZM52.6726 45.6043H54.2197V50.1393H52.6726V45.6043Z" fill="#E5AE00"/>
<path d="M144.5 58.0172V36.7125H129.015V29.1634H113.516V21.6143H108.087V24.2859H110.787V60.6889H113.516V31.8213H126.273V53.1397H129.015V39.3705H141.772V60.6889H144.5H160V58.0172H144.5Z" fill="#E5AE00"/>
</svg>
